# xmcd
#
# Track frame offsets: 
#        150
#        12062
#        25105
#        38347
#        54035
#        67706
#        83023
#        94793
#        109934
#        123536
#        136305
#        149949
#        165439
#        177357
#
# Disc length: 2547 seconds
#
# Revision: 0
# Processed by: cddbd v1.5.2PL0 Copyright (c) Steve Scherf et al.
# Submitted via: ExactAudioCopy v1.0b1
#
DISCID=a909f10e
DTITLE=Declan Nerney - Thank Heaven For You
DYEAR=2009
DGENRE=Country
TTITLE0=I'll Be There If You Ever Want Me
TTITLE1=Lonesome 77203 
TTITLE2=Rosie Donaghue
TTITLE3=Thank Heaven For You
TTITLE4=My Hero Lies In Cookstown
TTITLE5=All Friends Together
TTITLE6=You're The World
TTITLE7=The Classroom Clown 
TTITLE8=No More Lonely
TTITLE9=Never Take You Back Again
TTITLE10=Back Home In Roscommon
TTITLE11=Mamma's Light
TTITLE12=This Little Spot
TTITLE13=Time After Time 
EXTD=
EXTT0=
EXTT1=
EXTT2=
EXTT3=
EXTT4=
EXTT5=
EXTT6=
EXTT7=
EXTT8=
EXTT9=
EXTT10=
EXTT11=
EXTT12=
EXTT13=
PLAYORDER=
